<svg width="735" height="277" viewBox="0 0 735 277" fill="none" xmlns="http://www.w3.org/2000/svg">
<g clip-path="url(#clip0_1429_93)">
<path d="M0 0H127C185.542 0 233 47.4578 233 106V171C233 229.542 185.542 277 127 277H0V0Z" fill="#F54900"/>
<rect x="21" y="54" width="22" height="22" fill="white"/>
<rect x="43" y="33" width="20" height="22" fill="white"/>
<rect x="43" y="156" width="20" height="87" fill="white"/>
<rect x="107" y="59" width="20" height="184" fill="white"/>
<rect x="270" y="12" width="29" height="117" fill="#F54900"/>
<rect x="306" y="148" width="30" height="114" fill="#F54900"/>
<rect x="386" y="58" width="28" height="52" fill="#F54900"/>
<rect x="451" y="58" width="29" height="52" fill="#F54900"/>
<rect x="496" y="40" width="28" height="70" fill="#F54900"/>
<rect x="544" y="40" width="29" height="76" fill="#F54900"/>
<rect x="513" y="106" width="39" height="23" fill="#F54900"/>
<rect x="593" y="40" width="29" height="70" fill="#F54900"/>
<rect x="639" y="40" width="28" height="89" fill="#F54900"/>
<rect x="706" y="58" width="29" height="71" fill="#F54900"/>
<rect x="568" y="106" width="39" height="23" fill="#F54900"/>
<rect x="482" y="176" width="28" height="70" fill="#F54900"/>
<rect x="530" y="176" width="30" height="72" fill="#F54900"/>
<rect x="499" y="240" width="93" height="22" fill="#F54900"/>
<rect x="580" y="175" width="29" height="70" fill="#F54900"/>
<rect x="661" y="40" width="58" height="24" fill="#F54900"/>
<rect x="404" y="106" width="58" height="23" fill="#F54900"/>
<rect x="404" y="40" width="59" height="23" fill="#F54900"/>
<rect x="373" y="193" width="28" height="52" fill="#F54900"/>
<rect x="438" y="193" width="29" height="53" fill="#F54900"/>
<rect x="626" y="176" width="29" height="86" fill="#F54900"/>
<rect x="695" y="193" width="29" height="69" fill="#F54900"/>
<rect x="648" y="176" width="61" height="24" fill="#F54900"/>
<rect x="390" y="240" width="61" height="22" fill="#F54900"/>
<rect x="390" y="176" width="61" height="23" fill="#F54900"/>
<rect x="339" y="29" width="29" height="81" fill="#F54900"/>
<rect x="270" y="35" width="23" height="81" transform="rotate(-90 270 35)" fill="#F54900"/>
<rect x="270" y="129" width="23" height="81" transform="rotate(-90 270 129)" fill="#F54900"/>
<rect x="270" y="172" width="24" height="101" transform="rotate(-90 270 172)" fill="#F54900"/>
<rect x="145" y="59" width="20" height="130" fill="white"/>
<rect x="167" y="169" width="20" height="74" fill="white"/>
<rect x="64" y="110" width="19" height="66" fill="white"/>
<rect x="43" y="156" width="40" height="20" fill="white"/>
<rect x="147" y="169" width="40" height="20" fill="white"/>
<rect x="63" y="224" width="44" height="19" fill="white"/>
<rect x="127" y="224" width="44" height="19" fill="white"/>
<rect x="79" y="110" width="44" height="19" fill="white"/>
<rect x="115" y="98" width="44" height="19" fill="white"/>
<rect x="113" y="130" width="44" height="19" fill="white"/>
<rect x="113" y="59" width="44" height="22" fill="white"/>
</g>
<defs>
<clipPath id="clip0_1429_93">
<rect width="735" height="277" fill="white"/>
</clipPath>
</defs>
</svg>
